# xmcd CD database file generated by Grip 3.2.0
# 
# Track frame offsets:
#       150
#       17810
#       35327
#       51267
#       70625
#       85928
#       103607
#       122115
#       136477
#       155007
#       173041
#       189725
#       204019
#       218720
#       239438
#       255969
#       269918
#       283650
# 
# Disc length: 4034 seconds
# 
# Revision: 3
# Processed by: cddbd v1.5.1PL0 Copyright (c) Steve Scherf et al.
# Submitted via: Grip 3.2.0
# 
DISCID=050fc012
DTITLE=Westlife - Coast To Coast
DYEAR=1900
DGENRE=Blues
TTITLE0=My Love
TTITLE1=What Makes A Man
TTITLE2=I Lay My Love On You
TTITLE3=I Have A Dream (remix)
TTITLE4=Against All Odds (featering MARIAH CARY)
TTITLE5=When You're Looking Like That
TTITLE6=Close
TTITLE7=Someboddy Needs You
TTITLE8=Angel's Wings
TTITLE9=Soledad
TTITLE10=Puzzle Of My Heart
TTITLE11=Dreams Come True
TTITLE12=No Place That Far
TTITLE13=Close Your Eyes
TTITLE14=You Make Me Feel
TTITLE15=Loneliness Knows Me By Name
TTITLE16=Fragile Heart
TTITLE17=Every Little Thing You Do
EXTD=
EXTT0=
EXTT1=
EXTT2=
EXTT3=
EXTT4=
EXTT5=
EXTT6=
EXTT7=
EXTT8=
EXTT9=
EXTT10=
EXTT11=
EXTT12=
EXTT13=
EXTT14=
EXTT15=
EXTT16=
EXTT17=
PLAYORDER=
